<svg xmlns="http://www.w3.org/2000/svg" xmlns:xlink="http://www.w3.org/1999/xlink" xmlns:lucid="lucid" width="1621" height="322"><g transform="translate(-160 -99.00175999719997)" lucid:page-tab-id="0_0"><path d="M202 200h196M202.05 200H200M397.95 200H400M202 300h196M202.05 300H200M397.95 300H400" stroke="#3a414a" stroke-width="4" fill="none"/><path d="M180 306a6 6 0 0 1 6-6h228a6 6 0 0 1 6 6v48a6 6 0 0 1-6 6H186a6 6 0 0 1-6-6z" stroke="#000" stroke-opacity="0" fill="#fff" fill-opacity="0"/><use xlink:href="#a" transform="matrix(1,0,0,1,185,305) translate(47.12962962962965 30.27777777777778)"/><use xlink:href="#b" transform="matrix(1,0,0,1,185,305) translate(116.20370370370371 30.27777777777778)"/><path d="M602 200h196M602.05 200H600M797.95 200H800M602 300h196M602.05 300H600M797.95 300H800" stroke="#3a414a" stroke-width="4" fill="none"/><path d="M600 226a6 6 0 0 1 6-6h48a6 6 0 0 1 6 6v48a6 6 0 0 1-6 6h-48a6 6 0 0 1-6-6z" stroke="#3a414a" stroke-width="4" fill="#d7faf5"/><use xlink:href="#c" transform="matrix(1,0,0,1,612,232) translate(11.827160493827162 22.27777777777778)"/><path d="M580 306a6 6 0 0 1 6-6h228a6 6 0 0 1 6 6v48a6 6 0 0 1-6 6H586a6 6 0 0 1-6-6z" stroke="#000" stroke-opacity="0" fill="#fff" fill-opacity="0"/><use xlink:href="#d" transform="matrix(1,0,0,1,585,305) translate(70.55555555555554 30.27777777777778)"/><path d="M538.57 143.74l-.57 1.5-1.67 5.04-1.37 4.88-1.08 4.72-.83 4.56-.6 4.4-.37 4.27-.17 4.14.03 3.98.2 3.86.36 3.72.5 3.6.68 3.48.8 3.36.96 3.23 1.06 3.13 1.2 3 1.3 2.9 1.4 2.78 1.5 2.68 1.62 2.56 1.7 2.46 1.8 2.35 1.9 2.24 1.97 2.14 2.05 2.04 2.14 1.93 2.2 1.82 2.3 1.7 2.4 1.6 2.45 1.5 2.54 1.4.85.4" stroke="#3a414a" stroke-width="8" stroke-linejoin="round" fill="none"/><path d="M538.53 143.83L540 140" stroke="#3a414a" stroke-width="8" fill="none"/><path d="M585.38 245.12l-14.94 1.34 2.07-9.04z" stroke="#3a414a" stroke-width="8" fill="#3a414a"/><path d="M1002.1 200h196M1002.14 200h-2.05M1198.04 200h2.05M1002.1 300h196M1002.14 300h-2.05M1198.04 300h2.05" stroke="#3a414a" stroke-width="4" fill="none"/><path d="M1000.1 226a6 6 0 0 1 6-6h48a6 6 0 0 1 6 6v48a6 6 0 0 1-6 6h-48a6 6 0 0 1-6-6z" stroke="#3a414a" stroke-width="4" fill="#d7faf5"/><use xlink:href="#e" transform="matrix(1,0,0,1,1012.0900317605265,232) translate(11.827160493827162 22.27777777777778)"/><path d="M980.1 306a6 6 0 0 1 6-6h228a6 6 0 0 1 6 6v48a6 6 0 0 1-6 6h-228a6 6 0 0 1-6-6z" stroke="#000" stroke-opacity="0" fill="#fff" fill-opacity="0"/><use xlink:href="#d" transform="matrix(1,0,0,1,985.0900317605265,305) translate(70.55555555555554 30.27777777777778)"/><path d="M938.66 143.74l-.57 1.5-1.68 5.04-1.37 4.88-1.08 4.72-.83 4.56-.6 4.4-.37 4.27-.17 4.14.02 3.98.2 3.86.36 3.72.52 3.6.67 3.48.8 3.36.96 3.23 1.06 3.13 1.18 3 1.3 2.9 1.4 2.78 1.52 2.68 1.6 2.56 1.7 2.46 1.8 2.35 1.9 2.24 1.98 2.14 2.05 2.04 2.15 1.93 2.22 1.82 2.3 1.7 2.38 1.6 2.46 1.5 2.54 1.4.86.4" stroke="#3a414a" stroke-width="8" stroke-linejoin="round" fill="none"/><path d="M938.62 143.83l1.47-3.83" stroke="#3a414a" stroke-width="8" fill="none"/><path d="M985.47 245.12l-14.94 1.34 2.07-9.04z" stroke="#3a414a" stroke-width="8" fill="#3a414a"/><path d="M1070.1 226a6 6 0 0 1 6-6h48a6 6 0 0 1 6 6v48a6 6 0 0 1-6 6h-48a6 6 0 0 1-6-6z" stroke="#3a414a" stroke-width="4" fill="#d7faf5"/><use xlink:href="#c" transform="matrix(1,0,0,1,1082.0900317605265,231.99999999999997) translate(11.827160493827162 22.27777777777778)"/><path d="M1402 200h196M1402.05 200H1400M1597.95 200h2.05M1402 300h196M1402.05 300H1400M1597.95 300h2.05" stroke="#3a414a" stroke-width="4" fill="none"/><path d="M1470 226a6 6 0 0 1 6-6h48a6 6 0 0 1 6 6v48a6 6 0 0 1-6 6h-48a6 6 0 0 1-6-6z" stroke="#3a414a" stroke-width="4" fill="#d7faf5"/><use xlink:href="#e" transform="matrix(1,0,0,1,1482,231.99999999999997) translate(11.827160493827162 22.27777777777778)"/><path d="M1380 306a6 6 0 0 1 6-6h228a6 6 0 0 1 6 6v48a6 6 0 0 1-6 6h-228a6 6 0 0 1-6-6z" stroke="#000" stroke-opacity="0" fill="#fff" fill-opacity="0"/><use xlink:href="#f" transform="matrix(1,0,0,1,1385,305) translate(69.96913580246914 30.27777777777778)"/><path d="M1620 226a6 6 0 0 1 6-6h48a6 6 0 0 1 6 6v48a6 6 0 0 1-6 6h-48a6 6 0 0 1-6-6z" stroke="#3a414a" stroke-width="4" fill="#d7faf5"/><use xlink:href="#c" transform="matrix(1,0,0,1,1632,232) translate(11.827160493827162 22.27777777777778)"/><path d="M1686 249.94l2.86.08 2.8.2 2.47.3 2.24.38 2.04.43 1.88.5 1.73.52 1.62.58 1.5.62 1.42.66 1.33.72 1.27.74 1.2.78 1.18.82 1.1.88 1.1.92 1.03.98 1 1.04.98 1.1.96 1.2.92 1.27.92 1.37.9 1.47.86 1.6.85 1.75.82 1.93.8 2.12.78 2.37.73 2.65.68 3 .6 3.4.54 3.92.4 4.57.22 5.4-.02 6.43-.38 7.83-.92 9.7-.73 5.16" stroke="#3a414a" stroke-width="8" stroke-linejoin="round" fill="none"/><path d="M1686.17 253.93l-4.17.07v-8l4.03-.07z" stroke="#3a414a" stroke-width=".05" fill="#3a414a"/><path d="M1722.35 347.27l-1.96-14.87 9.1 1.7z" stroke="#3a414a" stroke-width="8" fill="#3a414a"/><defs><path fill="#3a414a" d="M30 0v-248h187v28H63v79h144v27H63v87h162V0H30" id="g"/><path fill="#3a414a" d="M210-169c-67 3-38 105-44 169h-31v-121c0-29-5-50-35-48C34-165 62-65 56 0H25l-1-190h30c1 10-1 24 2 32 10-44 99-50 107 0 11-21 27-35 58-36 85-2 47 119 55 194h-31v-121c0-29-5-49-35-48" id="h"/><path fill="#3a414a" d="M115-194c55 1 70 41 70 98S169 2 115 4C84 4 66-9 55-30l1 105H24l-1-265h31l2 30c10-21 28-34 59-34zm-8 174c40 0 45-34 45-75s-6-73-45-74c-42 0-51 32-51 76 0 43 10 73 51 73" id="i"/><path fill="#3a414a" d="M59-47c-2 24 18 29 38 22v24C64 9 27 4 27-40v-127H5v-23h24l9-43h21v43h35v23H59v120" id="j"/><path fill="#3a414a" d="M179-190L93 31C79 59 56 82 12 73V49c39 6 53-20 64-50L1-190h34L92-34l54-156h33" id="k"/><g id="a"><use transform="matrix(0.06172839506172839,0,0,0.06172839506172839,0,0)" xlink:href="#g"/><use transform="matrix(0.06172839506172839,0,0,0.06172839506172839,14.814814814814813,0)" xlink:href="#h"/><use transform="matrix(0.06172839506172839,0,0,0.06172839506172839,33.2716049382716,0)" xlink:href="#i"/><use transform="matrix(0.06172839506172839,0,0,0.06172839506172839,45.61728395061728,0)" xlink:href="#j"/><use transform="matrix(0.06172839506172839,0,0,0.06172839506172839,51.79012345679012,0)" xlink:href="#k"/></g><path fill="#3a414a" d="M140-251c81 0 123 46 123 126C263-53 228-8 163 1c7 30 30 48 69 40v23c-55 16-95-15-103-61C56-3 17-48 17-125c0-80 42-126 123-126zm0 227c63 0 89-41 89-101s-29-99-89-99c-61 0-89 39-89 99S79-25 140-24" id="l"/><path fill="#3a414a" d="M84 4C-5 8 30-112 23-190h32v120c0 31 7 50 39 49 72-2 45-101 50-169h31l1 190h-30c-1-10 1-25-2-33-11 22-28 36-60 37" id="m"/><path fill="#3a414a" d="M100-194c63 0 86 42 84 106H49c0 40 14 67 53 68 26 1 43-12 49-29l28 8c-11 28-37 45-77 45C44 4 14-33 15-96c1-61 26-98 85-98zm52 81c6-60-76-77-97-28-3 7-6 17-6 28h103" id="n"/><g id="b"><use transform="matrix(0.06172839506172839,0,0,0.06172839506172839,0,0)" xlink:href="#l"/><use transform="matrix(0.06172839506172839,0,0,0.06172839506172839,17.28395061728395,0)" xlink:href="#m"/><use transform="matrix(0.06172839506172839,0,0,0.06172839506172839,29.629629629629626,0)" xlink:href="#n"/><use transform="matrix(0.06172839506172839,0,0,0.06172839506172839,41.9753086419753,0)" xlink:href="#m"/><use transform="matrix(0.06172839506172839,0,0,0.06172839506172839,54.32098765432098,0)" xlink:href="#n"/></g><path fill="#3a414a" d="M27 0v-27h64v-190l-56 39v-29l58-41h29v221h61V0H27" id="o"/><use transform="matrix(0.06172839506172839,0,0,0.06172839506172839,0,0)" xlink:href="#o" id="c"/><path fill="#3a414a" d="M117-194c89-4 53 116 60 194h-32v-121c0-31-8-49-39-48C34-167 62-67 57 0H25l-1-190h30c1 10-1 24 2 32 11-22 29-35 61-36" id="p"/><path fill="#3a414a" d="M145-31C134-9 116 4 85 4 32 4 16-35 15-94c0-59 17-99 70-100 32-1 48 14 60 33 0-11-1-24 2-32h30l-1 268h-32zM93-21c41 0 51-33 51-76s-8-73-50-73c-40 0-46 35-46 75s5 74 45 74" id="q"/><g id="d"><use transform="matrix(0.06172839506172839,0,0,0.06172839506172839,0,0)" xlink:href="#g"/><use transform="matrix(0.06172839506172839,0,0,0.06172839506172839,14.814814814814813,0)" xlink:href="#p"/><use transform="matrix(0.06172839506172839,0,0,0.06172839506172839,27.160493827160494,0)" xlink:href="#q"/><use transform="matrix(0.06172839506172839,0,0,0.06172839506172839,39.50617283950617,0)" xlink:href="#m"/><use transform="matrix(0.06172839506172839,0,0,0.06172839506172839,51.85185185185185,0)" xlink:href="#n"/><use transform="matrix(0.06172839506172839,0,0,0.06172839506172839,64.19753086419753,0)" xlink:href="#m"/><use transform="matrix(0.06172839506172839,0,0,0.06172839506172839,76.54320987654322,0)" xlink:href="#n"/></g><path fill="#3a414a" d="M101-251c82-7 93 87 43 132L82-64C71-53 59-42 53-27h129V0H18c2-99 128-94 128-182 0-28-16-43-45-43s-46 15-49 41l-32-3c6-41 34-60 81-64" id="r"/><use transform="matrix(0.06172839506172839,0,0,0.06172839506172839,0,0)" xlink:href="#r" id="e"/><path fill="#3a414a" d="M30-248c118-7 216 8 213 122C240-48 200 0 122 0H30v-248zM63-27c89 8 146-16 146-99s-60-101-146-95v194" id="s"/><g id="f"><use transform="matrix(0.06172839506172839,0,0,0.06172839506172839,0,0)" xlink:href="#s"/><use transform="matrix(0.06172839506172839,0,0,0.06172839506172839,15.987654320987653,0)" xlink:href="#n"/><use transform="matrix(0.06172839506172839,0,0,0.06172839506172839,28.333333333333332,0)" xlink:href="#q"/><use transform="matrix(0.06172839506172839,0,0,0.06172839506172839,40.67901234567901,0)" xlink:href="#m"/><use transform="matrix(0.06172839506172839,0,0,0.06172839506172839,53.02469135802469,0)" xlink:href="#n"/><use transform="matrix(0.06172839506172839,0,0,0.06172839506172839,65.37037037037037,0)" xlink:href="#m"/><use transform="matrix(0.06172839506172839,0,0,0.06172839506172839,77.71604938271605,0)" xlink:href="#n"/></g></defs></g></svg>