<svg xmlns="http://www.w3.org/2000/svg" xmlns:xlink="http://www.w3.org/1999/xlink" xmlns:lucid="lucid" width="1633" height="444"><g transform="translate(-120 -382)" lucid:page-tab-id="0_0"><path d="M1686 249.94l2.86.08 2.8.2 2.47.3 2.24.38 2.04.43 1.88.5 1.73.52 1.62.58 1.5.62 1.42.66 1.33.72 1.27.74 1.2.78 1.18.82 1.1.88 1.1.92 1.03.98 1 1.04.98 1.1.96 1.2.92 1.27.92 1.37.9 1.47.86 1.6.85 1.75.82 1.93.8 2.12.78 2.37.73 2.65.68 3 .6 3.4.54 3.92.4 4.57.22 5.4-.02 6.43-.38 7.83-.92 9.7-.73 5.16" stroke="#3a414a" stroke-width="8" stroke-linejoin="round" fill="none"/><path d="M1686.17 253.93l-4.17.07v-8l4.03-.07z" stroke="#3a414a" stroke-width=".05" fill="#3a414a"/><path d="M1722.35 347.27l-1.96-14.87 9.1 1.7z" stroke="#3a414a" stroke-width="8" fill="#3a414a"/><path d="M350 516.54v196M350 516.6v-2.06M350 712.5v2.04M250 516.54v196M250 516.6v-2.06M250 712.5v2.04M711.96 516.54v196M711.96 516.6v-2.06M711.96 712.5v2.04M611.96 516.54v196M611.96 516.6v-2.06M611.96 712.5v2.04" stroke="#3a414a" stroke-width="4" fill="none"/><path d="M685.96 514.55a6 6 0 0 1 6 6v48a6 6 0 0 1-6 6h-48a6 6 0 0 1-6-6v-48a6 6 0 0 1 6-6z" stroke="#3a414a" stroke-width="4" fill="#d7faf5"/><use xlink:href="#a" transform="matrix(1,-2.4492935982947064e-16,2.4492935982947064e-16,1,643.9558641183369,526.5450158802635) translate(11.827160493827162 22.27777777777778)"/><path d="M768.22 453.1l-1.5-.56-5.05-1.67-4.88-1.36-4.72-1.08-4.57-.83-4.4-.6-4.26-.38-4.12-.17-4 .03-3.84.2-3.73.36-3.6.52-3.47.67-3.36.8-3.24.95-3.12 1.07-3 1.18-2.9 1.3-2.8 1.4-2.66 1.52-2.57 1.6-2.45 1.72-2.35 1.8-2.25 1.9-2.13 1.96-2.04 2.06-1.9 2.13-1.83 2.22-1.7 2.3-1.62 2.4-1.5 2.44-1.38 2.53-.42.86" stroke="#3a414a" stroke-width="8" stroke-linejoin="round" fill="none"/><path d="M768.12 453.08l3.83 1.46" stroke="#3a414a" stroke-width="8" fill="none"/><path d="M666.84 499.93L665.5 485l9.04 2.05z" stroke="#3a414a" stroke-width="8" fill="#3a414a"/><path d="M1112.05 516.54v196M1112.05 516.6v-2.06M1112.05 712.5v2.04M1012.05 516.54v196M1012.05 516.6v-2.06M1012.05 712.5v2.04" stroke="#3a414a" stroke-width="4" fill="none"/><path d="M1086.05 514.55a6 6 0 0 1 6 6v48a6 6 0 0 1-6 6h-48a6 6 0 0 1-6-6v-48a6 6 0 0 1 6-6z" stroke="#3a414a" stroke-width="4" fill="#d7faf5"/><use xlink:href="#b" transform="matrix(1,-2.4492935982947064e-16,2.4492935982947064e-16,1,1044.0458958788633,526.5450158802636) translate(11.827160493827162 22.27777777777778)"/><path d="M1168.3 453.1l-1.48-.56-5.06-1.67-4.88-1.36-4.7-1.08-4.58-.83-4.4-.6-4.27-.38-4.12-.17-3.98.03-3.85.2-3.73.36-3.6.52-3.47.67-3.36.8-3.23.95-3.12 1.07-3 1.18-2.9 1.3-2.8 1.4-2.66 1.52-2.58 1.6-2.45 1.72-2.35 1.8-2.25 1.9-2.13 1.96-2.04 2.06-1.92 2.13-1.82 2.22-1.7 2.3-1.62 2.4-1.5 2.44-1.38 2.53-.42.86" stroke="#3a414a" stroke-width="8" stroke-linejoin="round" fill="none"/><path d="M1168.2 453.08l3.84 1.46" stroke="#3a414a" stroke-width="8" fill="none"/><path d="M1066.93 499.93L1065.6 485l9.03 2.05z" stroke="#3a414a" stroke-width="8" fill="#3a414a"/><path d="M1086.05 584.55a6 6 0 0 1 6 6v48a6 6 0 0 1-6 6h-48a6 6 0 0 1-6-6v-48a6 6 0 0 1 6-6z" stroke="#3a414a" stroke-width="4" fill="#d7faf5"/><use xlink:href="#a" transform="matrix(1,-2.4492935982947064e-16,2.4492935982947064e-16,1,1044.0458958788633,596.5450158802635) translate(11.827160493827162 22.27777777777778)"/><path d="M1530.17 516.54v196M1530.17 516.6v-2.06M1530.17 712.5v2.04M1430.17 516.54v196M1430.17 516.6v-2.06M1430.17 712.5v2.04" stroke="#3a414a" stroke-width="4" fill="none"/><path d="M1560.02 446.9l-2.97-.27-4.12-.18-4 .03-3.84.2-3.73.36-3.6.52-3.48.67-3.37.8-3.24.95-3.13 1.07-3 1.18-2.9 1.3-2.8 1.4-2.66 1.52-2.56 1.6-2.45 1.72-2.36 1.8-2.25 1.9-2.14 1.96-2.03 2.06-1.93 2.13-1.82 2.22-1.7 2.3-1.62 2.4-1.5 2.44-1.38 2.53-1.28 2.62-1.16 2.7-1.05 2.76-.95 2.87-.8 2.94-.7 3.03-.55 3.12-.42 3.2-.28 3.3v.5" stroke="#3a414a" stroke-width="8" stroke-linejoin="round" fill="none"/><path d="M1577.62 451.36l-14.97.98 2.28-9z" stroke="#3a414a" stroke-width="8" fill="#3a414a"/><path d="M1482.2 508.44l-.03 4.1" stroke="#3a414a" stroke-width="8" fill="none"/><path d="M1504.17 584.55a6 6 0 0 1 6 6v48a6 6 0 0 1-6 6h-48a6 6 0 0 1-6-6v-48a6 6 0 0 1 6-6z" stroke="#3a414a" stroke-width="4" fill="#d7faf5"/><use xlink:href="#a" transform="matrix(1,-2.4492935982947064e-16,2.4492935982947064e-16,1,1462.1675466652669,596.5450158802635) translate(11.827160493827162 22.27777777777778)"/><path d="M1646.67 426.55a6 6 0 0 1 6 6v48a6 6 0 0 1-6 6h-48a6 6 0 0 1-6-6v-48a6 6 0 0 1 6-6z" stroke="#3a414a" stroke-width="4" fill="#d7faf5"/><use xlink:href="#b" transform="matrix(1,-2.4492935982947064e-16,2.4492935982947064e-16,1,1604.666666666667,438.5450158802635) translate(11.827160493827162 22.27777777777778)"/><path d="M180 738.94a6 6 0 0 1 6-6h228a6 6 0 0 1 6 6v48a6 6 0 0 1-6 6H186a6 6 0 0 1-6-6z" stroke="#000" stroke-opacity="0" fill="#fff" fill-opacity="0"/><use xlink:href="#c" transform="matrix(1,0,0,1,185,737.9391746067985) translate(52.68518518518519 30.27777777777778)"/><use xlink:href="#d" transform="matrix(1,0,0,1,185,737.9391746067985) translate(121.75925925925925 30.27777777777778)"/><path d="M543.6 738.94a6 6 0 0 1 6-6h228a6 6 0 0 1 6 6v48a6 6 0 0 1-6 6h-228a6 6 0 0 1-6-6z" stroke="#000" stroke-opacity="0" fill="#fff" fill-opacity="0"/><use xlink:href="#e" transform="matrix(1,0,0,1,548.6012551291334,737.9391746067985) translate(89.69135802469135 30.27777777777778)"/><path d="M943.7 738.94a6 6 0 0 1 6-6h228a6 6 0 0 1 6 6v48a6 6 0 0 1-6 6h-228a6 6 0 0 1-6-6z" stroke="#000" stroke-opacity="0" fill="#fff" fill-opacity="0"/><use xlink:href="#e" transform="matrix(1,0,0,1,948.6912868896598,737.9391746067985) translate(89.69135802469135 30.27777777777778)"/><path d="M1360.17 738.94a6 6 0 0 1 6-6h228a6 6 0 0 1 6 6v48a6 6 0 0 1-6 6h-228a6 6 0 0 1-6-6z" stroke="#000" stroke-opacity="0" fill="#fff" fill-opacity="0"/><use xlink:href="#f" transform="matrix(1,0,0,1,1365.1675466652666,737.9391746067985) translate(95.24691358024691 30.27777777777778)"/><defs><path fill="#3a414a" d="M27 0v-27h64v-190l-56 39v-29l58-41h29v221h61V0H27" id="g"/><use transform="matrix(0.06172839506172839,0,0,0.06172839506172839,0,0)" xlink:href="#g" id="a"/><path fill="#3a414a" d="M101-251c82-7 93 87 43 132L82-64C71-53 59-42 53-27h129V0H18c2-99 128-94 128-182 0-28-16-43-45-43s-46 15-49 41l-32-3c6-41 34-60 81-64" id="h"/><use transform="matrix(0.06172839506172839,0,0,0.06172839506172839,0,0)" xlink:href="#h" id="b"/><path fill="#3a414a" d="M30 0v-248h187v28H63v79h144v27H63v87h162V0H30" id="i"/><path fill="#3a414a" d="M210-169c-67 3-38 105-44 169h-31v-121c0-29-5-50-35-48C34-165 62-65 56 0H25l-1-190h30c1 10-1 24 2 32 10-44 99-50 107 0 11-21 27-35 58-36 85-2 47 119 55 194h-31v-121c0-29-5-49-35-48" id="j"/><path fill="#3a414a" d="M115-194c55 1 70 41 70 98S169 2 115 4C84 4 66-9 55-30l1 105H24l-1-265h31l2 30c10-21 28-34 59-34zm-8 174c40 0 45-34 45-75s-6-73-45-74c-42 0-51 32-51 76 0 43 10 73 51 73" id="k"/><path fill="#3a414a" d="M59-47c-2 24 18 29 38 22v24C64 9 27 4 27-40v-127H5v-23h24l9-43h21v43h35v23H59v120" id="l"/><path fill="#3a414a" d="M179-190L93 31C79 59 56 82 12 73V49c39 6 53-20 64-50L1-190h34L92-34l54-156h33" id="m"/><g id="c"><use transform="matrix(0.06172839506172839,0,0,0.06172839506172839,0,0)" xlink:href="#i"/><use transform="matrix(0.06172839506172839,0,0,0.06172839506172839,14.814814814814813,0)" xlink:href="#j"/><use transform="matrix(0.06172839506172839,0,0,0.06172839506172839,33.2716049382716,0)" xlink:href="#k"/><use transform="matrix(0.06172839506172839,0,0,0.06172839506172839,45.61728395061728,0)" xlink:href="#l"/><use transform="matrix(0.06172839506172839,0,0,0.06172839506172839,51.79012345679012,0)" xlink:href="#m"/></g><path fill="#3a414a" d="M185-189c-5-48-123-54-124 2 14 75 158 14 163 119 3 78-121 87-175 55-17-10-28-26-33-46l33-7c5 56 141 63 141-1 0-78-155-14-162-118-5-82 145-84 179-34 5 7 8 16 11 25" id="n"/><path fill="#3a414a" d="M141-36C126-15 110 5 73 4 37 3 15-17 15-53c-1-64 63-63 125-63 3-35-9-54-41-54-24 1-41 7-42 31l-33-3c5-37 33-52 76-52 45 0 72 20 72 64v82c-1 20 7 32 28 27v20c-31 9-61-2-59-35zM48-53c0 20 12 33 32 33 41-3 63-29 60-74-43 2-92-5-92 41" id="o"/><path fill="#3a414a" d="M96-169c-40 0-48 33-48 73s9 75 48 75c24 0 41-14 43-38l32 2c-6 37-31 61-74 61-59 0-76-41-82-99-10-93 101-131 147-64 4 7 5 14 7 22l-32 3c-4-21-16-35-41-35" id="p"/><path fill="#3a414a" d="M143 0L79-87 56-68V0H24v-261h32v163l83-92h37l-77 82L181 0h-38" id="q"/><g id="d"><use transform="matrix(0.06172839506172839,0,0,0.06172839506172839,0,0)" xlink:href="#n"/><use transform="matrix(0.06172839506172839,0,0,0.06172839506172839,14.814814814814813,0)" xlink:href="#l"/><use transform="matrix(0.06172839506172839,0,0,0.06172839506172839,20.98765432098765,0)" xlink:href="#o"/><use transform="matrix(0.06172839506172839,0,0,0.06172839506172839,33.33333333333333,0)" xlink:href="#p"/><use transform="matrix(0.06172839506172839,0,0,0.06172839506172839,44.44444444444444,0)" xlink:href="#q"/></g><path fill="#3a414a" d="M30-248c87 1 191-15 191 75 0 78-77 80-158 76V0H30v-248zm33 125c57 0 124 11 124-50 0-59-68-47-124-48v98" id="r"/><path fill="#3a414a" d="M84 4C-5 8 30-112 23-190h32v120c0 31 7 50 39 49 72-2 45-101 50-169h31l1 190h-30c-1-10 1-25-2-33-11 22-28 36-60 37" id="s"/><path fill="#3a414a" d="M135-143c-3-34-86-38-87 0 15 53 115 12 119 90S17 21 10-45l28-5c4 36 97 45 98 0-10-56-113-15-118-90-4-57 82-63 122-42 12 7 21 19 24 35" id="t"/><path fill="#3a414a" d="M106-169C34-169 62-67 57 0H25v-261h32l-1 103c12-21 28-36 61-36 89 0 53 116 60 194h-32v-121c2-32-8-49-39-48" id="u"/><g id="e"><use transform="matrix(0.06172839506172839,0,0,0.06172839506172839,0,0)" xlink:href="#r"/><use transform="matrix(0.06172839506172839,0,0,0.06172839506172839,14.814814814814813,0)" xlink:href="#s"/><use transform="matrix(0.06172839506172839,0,0,0.06172839506172839,27.160493827160494,0)" xlink:href="#t"/><use transform="matrix(0.06172839506172839,0,0,0.06172839506172839,38.27160493827161,0)" xlink:href="#u"/></g><path fill="#3a414a" d="M100-194c62-1 85 37 85 99 1 63-27 99-86 99S16-35 15-95c0-66 28-99 85-99zM99-20c44 1 53-31 53-75 0-43-8-75-51-75s-53 32-53 75 10 74 51 75" id="v"/><g id="f"><use transform="matrix(0.06172839506172839,0,0,0.06172839506172839,0,0)" xlink:href="#r"/><use transform="matrix(0.06172839506172839,0,0,0.06172839506172839,14.814814814814813,0)" xlink:href="#v"/><use transform="matrix(0.06172839506172839,0,0,0.06172839506172839,27.160493827160494,0)" xlink:href="#k"/></g></defs></g></svg>